<?xml version="1.0" encoding="UTF-8"?>
<svg id="icono-4-cuaderno" xmlns="http://www.w3.org/2000/svg" version="1.1" viewBox="0 0 48 48">
  <!-- Generator: Adobe Illustrator 29.1.0, SVG Export Plug-In . SVG Version: 2.1.0 Build 142)  -->
  <defs>
    <style>
      .st0 {
        fill: none;
        fill-rule: evenodd;
        stroke: #105ea9;
        stroke-linecap: round;
        stroke-linejoin: round;
      }
    </style>
  </defs>
  <path class="st0" d="M32.3,17.1c.9,2.2,1.5,4.7,1.5,6.9h0c0,2.4-.6,4.7-1.5,6.9M36.8,11.4c2.3,3.9,3.4,8.4,3.4,12.7h0c0,4.3-1.1,8.8-3.4,12.7M41.2,5.7c3.6,5.6,5.4,11.8,5.4,18.3h0c0,6.5-1.9,12.7-5.4,18.2M10.6,33.7c1.6,0,3.1.6,4.3,1.6l6.3,5.6c.4.3.5.5,1.1.5s.3-.2.5-.2c.5-.3.9-.9.9-1.4V8.2c0-.8-.4-1.3-.9-1.5-.5-.2-1.2-.2-1.8.4l-5.5,6.1c-1.2,1.3-2.9,2.1-4.8,2.1H3.4c-.9,0-1.6.7-1.6,1.6v15.4c0,.7.7,1.4,1.6,1.4h7.2Z"/>
</svg>