<?xml version="1.0" encoding="UTF-8"?>
<svg id="icono-4-cuaderno" xmlns="http://www.w3.org/2000/svg" viewBox="0 0 48 48">
  <defs>
    <style>
      .cls-1 {
        fill: none;
        stroke: #105ea9;
        stroke-linecap: round;
        stroke-linejoin: round;
      }
    </style>
  </defs>
  <polyline class="cls-1" points="43.38 10.39 46.46 10.39 46.46 39.89 1.54 39.89 1.54 10.39 4.69 10.39"/>
  <g>
    <path class="cls-1" d="M5.3,8.11h18.92v28.12h-15.09c-2.11,0-3.83-1.72-3.83-3.83V8.11h0Z" transform="translate(29.53 44.35) rotate(-180)"/>
    <line class="cls-1" x1="9.55" y1="13.71" x2="19.98" y2="13.71"/>
    <line class="cls-1" x1="9.55" y1="18.44" x2="19.98" y2="18.44"/>
    <line class="cls-1" x1="9.55" y1="23.16" x2="19.98" y2="23.16"/>
    <line class="cls-1" x1="9.55" y1="27.89" x2="19.98" y2="27.89"/>
  </g>
  <g>
    <path class="cls-1" d="M28.06,8.11h15.09v28.12h-18.92V11.94c0-2.11,1.72-3.83,3.83-3.83Z"/>
    <line class="cls-1" x1="28.48" y1="13.71" x2="38.9" y2="13.71"/>
    <line class="cls-1" x1="28.48" y1="18.44" x2="38.9" y2="18.44"/>
    <line class="cls-1" x1="28.48" y1="23.16" x2="38.9" y2="23.16"/>
    <line class="cls-1" x1="28.48" y1="27.89" x2="38.9" y2="27.89"/>
  </g>
</svg>