<?xml version="1.0" encoding="UTF-8"?>
<svg id="icono-4-cuaderno" xmlns="http://www.w3.org/2000/svg" version="1.1" viewBox="0 0 48 48">
  <!-- Generator: Adobe Illustrator 29.1.0, SVG Export Plug-In . SVG Version: 2.1.0 Build 142)  -->
  <defs>
    <style>
      .st0 {
        fill: none;
        stroke: #105ea9;
        stroke-linecap: round;
        stroke-linejoin: round;
      }
    </style>
  </defs>
  <path class="st0" d="M21.2,34.5v3.4c0,1.6-1.3,2.8-2.8,2.8s-1.5-.3-2-.8c-.5-.5-.8-1.2-.8-2v-3.4h5.7Z"/>
  <path class="st0" d="M15.6,34.5v3.4c0,1.6-1.3,2.8-2.8,2.8s-1.5-.3-2-.8c-.5-.5-.8-1.2-.8-2v-1l1.7-2.4h4Z"/>
  <path class="st0" d="M19,12.8l-9.8,14.3h0c-.3.2-.5.3-.7.6-.6.6-1,1.4-1.1,2.4l-.6.9c-.2.3-.4.6-.7.8-.9.7-2.2.8-3.2.1-.9-.5-1.3-1.5-1.3-2.4s.1-1,.4-1.5l7.5-11.7c.6-.9,1.7-1.7,2.6-2.2l2.7-1.3s1.7-.6,4.2,0Z"/>
  <path class="st0" d="M40.9,21.3v13.2s-9.9,7.1-19.6,0h-9.9c-.5,0-1,0-1.5-.3-1.5-.6-2.5-2-2.5-3.7s0-.3,0-.5c.1-.9.5-1.7,1.1-2.4.2-.2.5-.4.7-.6h0c.6-.4,1.3-.6,2.1-.6h5.7l7.6-11.1c4.7,2.5,11.5,5.9,11.5,5.9h4.8Z"/>
  <rect class="st0" x="40.9" y="19.3" width="5.6" height="17.6"/>
  <path class="st0" d="M11.6,34.5l-1.7,2.4-.5.8-6.3,3.8,1.2-7.2,1.7-2.5c.3-.2.5-.5.7-.8l.6-.9c0,.2,0,.3,0,.5,0,1.7,1.1,3.1,2.5,3.7.5.2,1,.3,1.5.3h.2Z"/>
  <path class="st0" d="M29.5,8.3l-4.9,7.1-7.6,11.1h-5.7c-.8,0-1.5.2-2.1.6l9.8-14.3,5.4-7.9,5,3.4Z"/>
  <path class="st0" d="M17,26.5h2.8s4.2.2,6.7-2.9"/>
</svg>