<?xml version="1.0" encoding="UTF-8"?>
<svg id="icono-4-cuaderno" xmlns="http://www.w3.org/2000/svg" version="1.1" viewBox="0 0 48 48">
  <!-- Generator: Adobe Illustrator 29.1.0, SVG Export Plug-In . SVG Version: 2.1.0 Build 142)  -->
  <defs>
    <style>
      .st0 {
        fill: none;
        stroke: #105ea9;
        stroke-linecap: round;
        stroke-linejoin: round;
      }
    </style>
  </defs>
  <path class="st0" d="M30.5,8.2c0,.9,0,3.5-1.9,6.2-.5.7-1,1.2-1.6,1.6,0,0,0,0-.1,0,0,0,0,0,0,0-1.7,1.2-4.1,1.2-5.8,0s0,0,0,0c0,0,0,0-.1,0-.1-.1-.3-.2-.4-.3-.4-.3-.8-.8-1.1-1.3-1.8-2.8-1.9-5.3-1.9-6.2s.6-4.8,3.4-6.5c.8-.5,1.9-.9,3.1-.9,5.5.2,6.5,5.9,6.5,7.3Z"/>
  <path class="st0" d="M27.1,16c-.3.9-.8,3,1.5,3.8,2.9,1.1,4.5,1.3,4.5,1.3,0,0,1.3.4,2.4,1.4"/>
  <path class="st0" d="M20.9,16c.3.9.8,3-1.5,3.8-2.9,1.1-4.5,1.3-4.5,1.3,0,0-1.1.3-2.1,1.2"/>
  <path class="st0" d="M24,28.2v19c-3.1-1.4-8.2-2.7-16.6-2.7v-4.6l.6-.3c2.5-1.3,3.8-3.2,3.3-4.9-.5-1.7-2.3-2-3.8-1.2h0s0-8.7,0-8.7c8.4,0,13.5,1.6,16.6,3.4Z"/>
  <path class="st0" d="M36.7,34.7c-.5,1.8.8,3.6,3.3,4.9l.6.3v4.6c-8.4,0-13.5,1.3-16.6,2.7v-19c3.1-1.8,8.2-3.4,16.6-3.4v8.7h0c-1.6-.8-3.4-.5-3.8,1.2Z"/>
  <line class="st0" x1="20.8" y1="42.5" x2="20.8" y2="30.9"/>
  <line class="st0" x1="27.2" y1="42.5" x2="27.2" y2="30.9"/>
  <path class="st0" d="M8,39.7l-.6.3h0c-1,.5-2.3.3-3-.6-1.3-1.5-1.3-3.6.4-4.5l2.7-1.4h0c1.6-.8,3.4-.5,3.8,1.2.5,1.8-.8,3.6-3.3,4.9Z"/>
  <path class="st0" d="M44.1,38.6c-.7,1.4-2.2,2.1-3.5,1.3h0s-.6-.3-.6-.3c-2.5-1.3-3.8-3.2-3.3-4.9.5-1.7,2.3-2,3.8-1.2h0s2.7,1.4,2.7,1.4c1.4.7,1.6,2.3.9,3.7Z"/>
  <path class="st0" d="M4.1,35.3s-1-3.5,3.4-4.7v2.9l-3.4,1.8Z"/>
  <path class="st0" d="M43.9,35.3s1-3.5-3.4-4.7v2.9s3.4,1.8,3.4,1.8Z"/>
</svg>